# AST/ASF file generated using VICON BodyLanguage
# -----------------------------------------------
:version 1.10
:name VICON
:units
  mass 1.0
  length 0.45
  angle deg
:documentation
   .ast/.asf automatically generated from VICON data using
   VICON BodyBuilder and BodyLanguage model FoxedUp or BRILLIANT.MOD
:root
   order TX TY TZ RX RY RZ
   axis XYZ
   position 0 0 0  
   orientation 0 0 0 
:bonedata
  begin
     id 1 
     name lhipjoint
     direction 0.734343 -0.627749 0.258209 
     length 2.5437 
     axis 0 0 0  XYZ
  end
  begin
     id 2 
     name lfemur
     direction 0.34202 -0.939693 0  
     length 6.7391  
     axis 0 0 20  XYZ
    dof rx ry rz
    limits (-160.0 20.0)
           (-70.0 70.0)
           (-60.0 70.0)
  end
  begin
     id 3 
     name ltibia
     direction 0.34202 -0.939693 0   
     length 7.21536   
     axis 0 0 20   XYZ
    dof rx
    limits (-10.0 170.0)
  end
  begin
     id 4 
     name lfoot
     direction 0.0489572 -0.134509 0.989702   
     length 1.61313   
     axis -90 7.62852e-016 20   XYZ
    dof rx rz
    limits (-45.0 90.0)
           (-70.0 20.0)
  end
  begin
     id 5 
     name ltoes
     direction 1.53451e-011 -4.21692e-011 1   
     length 0.823104   
     axis -90 7.62852e-016 20   XYZ
    dof rx
    limits (-90.0 20.0)
  end
  begin
     id 6 
     name rhipjoint
     direction -0.746398 -0.615468 0.253157   
     length 2.59446  
     axis 0 0 0  XYZ 
  end
  begin
     id 7 
     name rfemur
     direction -0.34202 -0.939693 0   
     length 6.7075   
     axis 0 0 -20   XYZ
    dof rx ry rz
    limits (-160.0 20.0)
           (-70.0 70.0)
           (-70.0 60.0)
  end
  begin
     id 8 
     name rtibia
     direction -0.34202 -0.939693 0   
     length 7.27262   
     axis 0 0 -20   XYZ
    dof rx
    limits (-10.0 170.0)
 end
 begin
     id 9 
     name rfoot
     direction -0.0455203 -0.125066 0.991104   
     length 1.91095  
     axis -90 -7.62852e-016 -20   XYZ
    dof rx rz
    limits (-45.0 90.0)
           (-20.0 70.0)
  end
  begin
     id 10 
     name rtoes
     direction -1.53601e-011 -4.21913e-011 1   
     length 0.969037   
     axis -90 -7.62852e-016 -20   XYZ
    dof rx
    limits (-90.0 20.0)
  end
  begin
     id 11 
     name lowerback
     direction 0.0181546 0.999122 -0.0377542   
     length 1.99916   
     axis 0 0 0   XYZ
    dof rx ry rz
    limits (-20.0 45.0)
           (-30.0 30.0)
           (-30.0 30.0)
  end
  begin
     id 12 
     name upperback
     direction 0.0203486 0.99589 0.0882534   
     length 1.951   
     axis 0 0 0   XYZ
    dof rx ry rz
    limits (-20.0 45.0)
           (-30.0 30.0)
           (-30.0 30.0)
  end
  begin
     id 13 
     name thorax
     direction 0.0131685 0.994241 0.106355   
     length 1.97461   
     axis 0 0 0   XYZ
    dof rx ry rz
    limits (-20.0 45.0)
           (-30.0 30.0)
           (-30.0 30.0)
  end
  begin
     id 14 
     name lowerneck
     direction -0.0281395 0.999325 0.023617   
     length 1.7959   
     axis 0 0 0   XYZ
    dof rx ry rz
    limits (-20.0 45.0)
           (-30.0 30.0)
           (-30.0 30.0)
  end
  begin
     id 15 
     name upperneck
     direction 0.0288721 0.991984 -0.123019   
     length 1.79917   
     axis 0 0 0   XYZ
    dof rx ry rz
    limits (-20.0 45.0)
           (-30.0 30.0)
           (-30.0 30.0)
  end
  begin
     id 16
     name head
     direction 0.0133797 0.998944 -0.0439492  
     length 1.80902  
     axis 0 0 0   XYZ
    dof rx ry rz
    limits (-20.0 45.0)
           (-30.0 30.0)
           (-30.0 30.0)
  end
  begin
     id 17 
     name lclavicle
     direction 0.919195 0.377107 0.113449  
     length 3.17815  
     axis 0 0 0   XYZ
    dof ry rz
    limits (-20.0 10.0)
           (0.0 20.0)
  end
  begin
     id 18 
     name lhumerus
     direction 1 -4.48959e-011 2.13129e-027   
     length 4.84137   
     axis 180 -30 -90   XYZ
    dof rx ry rz
    limits (-60.0 90.0)
           (-90.0 90.0)
           (-90.0 90.0)
  end
  begin
     id 19
     name lradius
     direction 1 -4.48957e-011 -6.30627e-028   
     length 3.2452   
     axis 180 -30 -90   XYZ
    dof rx
    limits (-10.0 170.0)
  end
  begin
     id 20
     name lwrist
     direction 1 -4.4901e-011 9.13299e-027   
     length 1.6226   
     axis -6.84618e-015 90 90   XYZ
    dof ry
    limits (-180.0 0.0)
 end
  begin
     id 21 
     name lhand
     direction 1 -4.48816e-011 1.82293e-026   
     length 0.521221   
     axis -1.16502e-014 90 90   XYZ
    dof rx rz
    limits (-90.0 90.0)
           (-45.0 45.0)
  end
  begin
     id 22 
     name lfingers
     direction 1 -4.49108e-011 3.65687e-026   
     length 0.420221   
     axis -2.33008e-014 90 90   XYZ
    dof rx
    limits (0.0 90.0)
  end
  begin
     id 23
     name lthumb
     direction 0.707107 -6.34943e-011 0.707107   
     length 0.603356   
     axis -90 45 5.69224e-014   XYZ
    dof rx rz
    limits (-45.0 45.0)
           (-45.0 45.0)
  end
  begin
     id 24 
     name rclavicle
     direction -0.90847 0.38596 0.160368   
     length 3.12973  
     axis 0 0 0   XYZ 
    dof ry rz
    limits (-10.0 20.0)
           (-20.0 0.0)
  end
  begin
     id 25 
     name rhumerus
     direction -1 -4.48974e-011 4.47268e-028  
     length 4.72284   
     axis 180 30 90   XYZ
    dof rx ry rz
    limits (-90.0 60.0)
           (-90.0 90.0)
           (-90.0 90.0)
  end
  begin
     id 26 
     name rradius
     direction -1 -4.48969e-011 3.43203e-027   
     length 3.23459   
     axis 180 30 90   XYZ
    dof rx
    limits (-10.0 170.0)
  end
  begin
     id 27 
     name rwrist
     direction -1 -4.48969e-011 9.12911e-027   
     length 1.6173   
     axis -6.84618e-015 -90 -90   XYZ
    dof ry
    limits (-180.0 0.0)
  end
  begin
     id 28
     name rhand
     direction -1 -4.49194e-011 1.83006e-026   
     length 0.307416   
     axis -1.16502e-014 -90 -90   XYZ
    dof rx rz
    limits (-90.0 90.0)
           (-45.0 45.0)
  end
  begin
     id 29
     name rfingers
     direction -1 -4.48423e-011 3.63103e-026   
     length 0.247847   
     axis -2.33008e-014 -90 -90   XYZ
    dof rx
    limits (0.0 90.0)
  end
  begin
     id 30
     name rthumb
     direction -0.707107 -6.34802e-011 0.707107   
     length 0.35586   
     axis -90 -45 -5.69224e-014   XYZ
    dof rx rz
    limits (-45.0 45.0)
           (-45.0 45.0)
  end
:hierarchy
  begin
    root lhipjoint rhipjoint lowerback
    lhipjoint lfemur
    lfemur ltibia
    ltibia lfoot
    lfoot ltoes
    rhipjoint rfemur
    rfemur rtibia
    rtibia rfoot
    rfoot rtoes
    lowerback upperback
    upperback thorax
    thorax lowerneck lclavicle rclavicle
    lowerneck upperneck
    upperneck head
    lclavicle lhumerus
    lhumerus lradius
    lradius lwrist
    lwrist lhand lthumb
    lhand lfingers
    rclavicle rhumerus
    rhumerus rradius
    rradius rwrist
    rwrist rhand rthumb
    rhand rfingers
  end

#!OML:ASF H:\Terrain\Patient Classification 1\Animal1\Tuesday\Animal1.ASF
:FULLY-SPECIFIED
:DEGREES
1
root 28.6264 15.1313 -33.6119 13.151 -30.569 2.00557
lowerback 8.28355 1.2823 -1.24778
upperback 0.287634 1.58515 0.0716059
thorax -4.38345 0.808039 0.586469
lowerneck -6.46704 0.118102 -6.47835
upperneck 16.5674 -0.319199 7.53033
head 6.0726 -0.016036 3.45315
rclavicle -1.38155e-014 1.63003e-014
rhumerus -55.5006 14.0783 -98.5957
rradius 40.6496
rwrist -37.5671
rhand -23.0245 11.7709
rfingers 7.12502
rthumb 3.41943 -18.1814
lclavicle -1.38155e-014 1.63003e-014
lhumerus -55.5779 -1.00519 94.2336
lradius 44.8528
lwrist 13.6238
lhand 10.5256 56.7975
lfingers 7.12502
lthumb 35.6247 83.2053
rfemur -48.3445 -1.84503 25.3615
rtibia 65.6786
rfoot -5.5229 -8.8558
rtoes -19.2892
lfemur -31.3041 -12.948 -25.9187
ltibia 41.4914
lfoot -26.8581 18.6992
ltoes -3.30087
2
root 28.6233 15.1473 -33.5943 13.2347 -30.6735 1.78293
lowerback 8.28207 1.27917 -1.09422
upperback 0.275199 1.60018 0.173231
thorax -4.39454 0.813472 0.603643
lowerneck -6.32406 0.0651935 -6.43883
upperneck 16.4012 -0.395824 7.52582
head 6.00123 -0.0536498 3.43591
rclavicle 4.57205e-015 -3.69739e-014
rhumerus -55.4986 13.9995 -98.4344
rradius 40.7765
rwrist -37.8243
rhand -23.1024 12.1824
rfingers 7.12502
rthumb 3.34426 -17.7711
lclavicle 4.57205e-015 -3.69739e-014
lhumerus -55.4592 -1.11465 94.3507
lradius 44.5841
lwrist 13.6744
lhand 10.4741 56.7326
lfingers 7.12502
lthumb 35.5759 83.1522
rfemur -49.0718 -2.25347 25.6189
rtibia 66.5971
rfoot -4.25433 -7.36263
rtoes -18.8659
lfemur -31.0975 -12.6996 -25.7829
ltibia 41.2939
lfoot -26.8647 18.5089
ltoes -3.98817
3
root 28.6186 15.1586 -33.5799 13.4011 -30.7394 1.48041
lowerback 8.36875 1.2594 -0.846185
upperback 0.186574 1.60109 0.265771
thorax -4.53128 0.810494 0.557072
lowerneck -6.30905 0.0681597 -6.29112
upperneck 16.472 -0.404776 7.45747
head 6.02158 -0.0547252 3.38945
rclavicle -2.96189e-014 7.55382e-015
rhumerus -55.58 13.8777 -98.3806
rradius 40.9585
rwrist -37.9013
rhand -23.4844 12.109
rfingers 7.12502
rthumb 2.97528 -17.85
lclavicle -2.96189e-014 7.55382e-015
lhumerus -55.491 -1.1693 94.3613
lradius 44.4006
lwrist 13.5756
lhand 10.728 56.5975
lfingers 7.12502
lthumb 35.8165 82.9589
rfemur -49.835 -2.49692 25.9156
rtibia 67.4976
rfoot -2.84673 -5.88715
rtoes -20.0883
lfemur -31.004 -12.4282 -25.5435
ltibia 41.1342
lfoot -26.7778 18.8157
ltoes -6.24553
4
root 28.6128 15.1668 -33.5603 13.3342 -30.922 1.39849
lowerback 8.33401 1.27725 -0.478971
upperback 0.247495 1.64993 0.0487956
thorax -4.43211 0.824212 0.121691
lowerneck -6.23063 0.0830128 -5.93661
upperneck 16.3737 -0.436901 7.5049
head 5.97882 -0.0473359 3.34045
rclavicle 2.33572e-014 5.96354e-015
rhumerus -55.4289 13.4766 -98.6144
rradius 41.0213
rwrist -37.7836
rhand -24.0548 11.7068
rfingers 7.12502
rthumb 2.4244 -18.2592
lclavicle 2.33572e-014 5.96354e-015
lhumerus -55.3981 -1.60986 94.15
lradius 44.2755
lwrist 13.6685
lhand 10.5992 56.6459
lfingers 7.12502
lthumb 35.6945 83.0369
rfemur -50.43 -2.71499 25.957
rtibia 68.3808
rfoot -1.76211 -4.24474
rtoes -21.9111
lfemur -30.6937 -12.1675 -25.5569
ltibia 40.9242
lfoot -26.6337 19.0698
ltoes -6.74483
5
root 28.6071 15.1754 -33.5377 13.0326 -31.0582 1.66988
lowerback 8.19325 1.19967 -0.0953378
upperback 0.397778 1.56099 -0.444058
thorax -4.17194 0.767981 -0.587949
lowerneck -6.1143 0.140426 -5.48942
upperneck 16.1401 -0.438777 7.69267
head 5.88457 -0.0114996 3.32034
rclavicle -4.17448e-015 -2.88238e-014
rhumerus -55.1213 13.0977 -99.1067
rradius 40.9768
rwrist -37.8145
rhand -24.6224 11.3314
rfingers 7.12502
rthumb 1.87623 -18.6401
lclavicle -4.17448e-015 -2.88238e-014
lhumerus -55.2478 -2.22623 93.6918
lradius 44.2412
lwrist 14.0716
lhand 10.193 56.7968
lfingers 7.12502
lthumb 35.3094 83.2801
rfemur -50.981 -3.13927 25.6786
rtibia 69.2259
rfoot -0.788988 -2.53549
rtoes -22.2858
lfemur -30.2735 -11.9842 -25.9227
ltibia 40.714
lfoot -26.1516 19.1035
ltoes -7.29708
6
root 28.6021 15.1906 -33.5193 12.8835 -31.0524 1.75599
lowerback 8.30483 1.09682 0.114601
upperback 0.421134 1.43648 -0.598615
thorax -4.20203 0.700722 -0.853679
lowerneck -6.30839 0.136797 -5.32755
upperneck 16.2452 -0.458497 7.67094
head 5.95281 -0.00910245 3.28767
rclavicle 5.91384e-014 1.53064e-014
rhumerus -54.953 12.8344 -99.113
rradius 40.882
rwrist -37.879
rhand -24.5049 11.5648
rfingers 7.12502
rthumb 1.9897 -18.4057
lclavicle 5.91384e-014 1.53064e-014
lhumerus -55.2451 -2.52018 93.5689
lradius 44.2696
lwrist 14.256
lhand 10.3263 56.8067
lfingers 7.12502
lthumb 35.4357 83.2599
rfemur -51.5626 -3.59793 25.617
rtibia 69.9337
rfoot 0.361629 -0.976817
rtoes -22.0298
lfemur -30.0092 -11.6922 -26.0977
ltibia 40.5278
lfoot -25.4324 18.7234
ltoes -8.00535
